<?xml version="1.0" encoding="UTF-8"?>
<svg version="1.1" viewBox="0 0 1600 1255" width="780" height="612" xmlns="http://www.w3.org/2000/svg">
<path transform="translate(0)" d="m0 0h1600v1255h-1600z" fill="#FCFCFC"/>
<path transform="translate(980,165)" d="m0 0 19 1 13 4 10 6 8 10 12 23 11 28 6 19 3 14v12l-4 6-8 6-8 4 6 23 7 24 21 3h5l3-30 4-17 5-12 6-10 8-9 10-7 19-9 9-3 13-1 18 2h47v-2h7l18 8 18 11 10 8 10 10 6 11 2 6 4 40 11 123 1 13v12l-23 1h-166l1 20 2 68v23l-31 4-10 1h-105l-42-4-1-3 1-76 2-83-20 8-24 8-24 6-17 3h-13l-23-5-36-12-30-13-29-14-10-5 1-6 1-2h-31l-4 11-4 9-4 12-2 3-12-3-5-2-1 5-6 10-8 7-12 6-7 1 4 10-2 5-18 18-7 8-16 16-1 2h8l30 9 26 7 9 4 6 4 5 6 1 7-3 8-6 7v11l-4 27v25l3 10v10l-7 6-8 2-5 7-10 23-6 8-5 4-5 2h-18l-7-2h-6l-4 8-1 5h11l9 2v2l10 1 6 3 9 3 8 4 10 4v2l6 2 9 4v2h3v2h3v2l5 2 6 7v2h2v3h2l4 8 3 10 4 14 5 33 2 25 1 3 3 34 1 3 1 14 2 13 6 54 4 40 1 3 4 43-12 1h-99l-14-1-99-1-57-2-9-1-31-1-49-1-1-3 1-43 1-6 3-41 1-24 1-4 1-16 1-3 2-27 3-18 1-14 2-13 3-15 3-19 3-12 1-6-21 1h-58l-33-3-30-4-15-3v-62l2-57 2-53 5-21 7-24 1-4v-20l-5-15-6-13-1-3v-17l7-16 6-9 7-9h2l2-4 6-8 2-4v-9l-8-21v-10l4-12 7-11 11-12 10-8 19-10 18-5 15-2h25l10 2 12 5 6 5 1 3v14l-4 15-6 11-10 13-19 19-9 11-6 11-1 11 3 12 8 15 9 16 3 8v7l20-4h11l13 4 16 9 10 6 7 2h12l12-3 19-9 21-14 4-3h2v-2l10-8 6-5 31-31 7-8 15-16 9-11 4-4 6 1 4 2v-9l3-13-7-2-1-1 1-7 5-11 5-13 8-20 6-17 5-11 6-17 5-12 4-10 1-5 7 2 7 3 17 6 9 4 17 6 12 5 12 4 9 4-1 9h-2l-1 5-4 12v2l12 6 8 8 7 13 4-2h3l27 13 19 7 24 6 12 2h22l12-3 19-9 27-18 19-14 14-9 16-5h24l-2-17-3-6-6-1-7 1h-12l-8-3-7-7-10-18-4-4-10-4-4-6 1-5 6-10 1-3v-21l-1-8v-10l2-6v-16l4-8 8-9 10-7 14-7 13-4z" fill="#E2E3B5"/>
<path transform="translate(1080,667)" d="m0 0h25l18 3 21 7 17 9 11 8 9 9 7 11 5 12 4 15 4 20 11 28 1 4v19l-4 16-2 9v18l8 25v19l1 4 2 26 1 25 1 6 2-2 4-12 7-14 8-10 7-7 11-7 11-4 15-3h16l25 3 15 1h24l19-2 6-2h9l18 5 8 4 11 6 12 12 6 10 5 14 6 25 5 26 7 46 7 53 6 55v10l-26 3-21 3-57 5-77 3h-29l-49-2-28-3-12-2-1-1 2-27 5-48-20 2-3 1-20 1-4 1h-80l-19-2-25-3-19-4v-149l-4 1v2l-11 6h-2v2l-10 5-16 6-10 4-15 3h-13l-12-5-6-3-16-12-14-12-15-14-24-24-7-8-14-15-7-8-12-14-7-9 3-9 2-5h2l2-5 7-8 9-8 15-9 5 1 14 17 12 14 18 20 22 22 17 13 10 4 3 1h11l14-4 14-7h2v-2l5-1v-2h3v-2h3v-2h3v-2l7-4 12-9h2v-2l13-5 10-3 11-1h18l17 2h2l6-9 5-13v-11l-4-15-2-11v-9l5-15 4-14v-7l-6-12-13-17-11-15-5-10v-15l6-8 7-4z" fill="#C4D43B"/>
<path transform="translate(490,604)" d="m0 0h1l1 20 2 11 4 10 8 7-2 10-12 43-1 8 6 2 11 5 13 4 16 3 9 1h18l5-1 2-4v4h11l9 2v2l10 1 6 3 9 3 8 4 10 4v2l6 2 9 4v2h3v2h3v2l5 2 6 7v2h2v3h2l4 8 3 10 4 14 5 33 2 25 1 3 3 34 1 3 1 14 2 13 6 54 4 40 1 3 4 43-12 1h-99l-14-1-99-1-57-2-9-1-31-1-49-1-1-3 1-43 1-6 3-41 1-24 1-4 1-16 1-3 2-27 3-18 1-14 2-13 3-15 3-19 3-12 1-6-3-2h4l4-16 7-20 6-11 6-7 10-6 2-1v-29l-2-57v-22l34-7 24-7 15-5 13-5z" fill="#F16452"/>
<path transform="translate(323,353)" d="m0 0h25l10 2 12 5 6 5 1 3v14l-4 15-6 11-10 13-19 19-9 11-6 11-1 11 3 12 8 15 9 16 3 8v7l20-4h11l13 4 16 9 10 6 7 2h12l12-3 19-9 21-14 4-3h2v-2l10-8 6-5 31-31 7-8 15-16 9-11 4-4 6 1 9 6 11 8 9 9 11 16 2 8-9 10-11 11-7 8-16 16-1 2h8l30 9 26 7 9 4 6 4 5 6 1 7-3 8-6 7v11l-4 27v25l3 10v10l-7 6-8 2-5 7-10 23-6 8-5 4-5 2h-18l-7-2h-6l-5 9-2 5-5 1h-18l-20-3-15-4-12-5-8-4v-8l14-50v-3l-8-7-4-10-2-11-1-19-5 3-16 6-19 6-28 7-16 3h-5l3 79v29l-10 6-5 4-5 7-7 16-5 15-4 13-9 2-13 1h-58l-33-3-30-4-15-3v-62l2-57 2-53 5-21 7-24 1-4v-20l-5-15-6-13-1-3v-17l7-16 6-9 7-9h2l2-4 6-8 2-4v-9l-8-21v-10l4-12 7-11 11-12 10-8 19-10 18-5z" fill="#471538"/>
<path transform="translate(182,95)" d="m0 0h55l13 3 11 6 4 5 1 3v11l-4 7 1 7 12 36 6 11 12 14 2 4v8l-7 8-3 12-3 16-7 14-9 9-11 6v7l3 13v3l21 3 15 5 10 6 10 9 6 8 7 12 2 5v4l-7 2 1 2-16-1-17 5-17 8-6 4h-2v2l-4 3h-2v2l-8 7-9 12-5 12-1 3v13l5 17 1 2v10l-7 12-8 9-8 11-6 13-2 9v9l4 14 7 18 2 19-2 10-3 1h-14l-54-3-41-4-44-6-1-1 1-17 4-40 9-69 7-43 6-29 6-22 5-12 7-9 7-7 13-8 13-5 13-3h11l4 1-6-24-5-21v-4h-6l-5-5-4-5-8-16-8-21-6-22-4-19v-18l4-13 8-13 7-8 10-7 5-3 16-5z" fill="#F7E8DF"/>
<path transform="translate(1285,901)" d="m0 0h16l25 3 15 1h24l19-2 6-2h9l18 5 8 4 11 6 12 12 6 10 5 14 6 25 5 26 7 46 7 53 6 55v10l-26 3-21 3-57 5-77 3h-29l-49-2-28-3-12-2-1-1 2-27 5-47 4-31 7-45 7-37 6-26 6-16 6-12 8-10 7-7 11-7 11-4z" fill="#1A3F37"/>
<path transform="translate(1151,250)" d="m0 0 17 1 8 1h47v-2h7l18 8 18 11 10 8 10 10 6 11 2 6 4 40 11 123 1 13v12l-23 1h-142l-24-1-1-10-3-73-2-32-3-7-6-8-9-6-5-3-10-3v-10l2-22 4-17 5-12 6-10 8-9 10-7 19-9 9-3z" fill="#265C61"/>
<path transform="translate(1080,667)" d="m0 0h25l18 3 21 7 17 9 11 8 9 9 7 11 5 12 4 15 4 20 11 28 1 4v19l-4 16-2 9v18l8 25v16l-9 16-5 10-1 10 4 24-1 10-3 9-4 5-10 5-10 3-10 7-9 8-10 4h-13l-13-4-11-6-7-7-5-10-4-10-6-8-9-10-6-12-2-7v-8l5-13 4-13-1-7-5-14v-14l5-9 7-10 5-13v-11l-4-15-2-11v-9l5-15 4-14v-7l-6-12-13-17-11-15-5-10v-15l6-8 7-4z" fill="#523427"/>
<path transform="translate(323,353)" d="m0 0h25l10 2 12 5 6 5 1 3v14l-4 15-6 11-10 13-19 19-9 11-6 11-1 11 3 12 8 15 9 16 3 8 1 8v10l-4 19-11 28-4 13-2 9v24l1 10v25l-4 8-9 10-16 8-6 2-7 1h-18l-13-5-10-6-7-6-10-14-8-17-3-10v-27l6-21 6-22v-20l-5-15-6-13-1-3v-17l7-16 6-9 7-9h2l2-4 6-8 2-4v-9l-8-21v-10l4-12 7-11 11-12 10-8 19-10 18-5z" fill="#1A1210"/>
<path transform="translate(552,526)" d="m0 0h11l15 1v2h8l30 9 26 7 9 4 6 4 5 6 1 7-3 8-6 7v11l-4 27v25l3 10v10l-7 6-8 2-5 7-10 23-6 8-5 4-5 2h-18l-7-2h-6l-5 9-2 5-5 1h-18l-20-3-15-4-12-5-8-4v-8l14-50v-3l-8-7-4-10-2-11v-24l4-24 3-10 6-12 8-10 9-8 12-6 11-3z" fill="#523427"/>
<path transform="translate(980,165)" d="m0 0 19 1 13 4 10 6 8 10 12 23 11 28 6 19 3 14v12l-4 6-8 6-8 4 6 23 7 24-2 2-15 3h-42l-18-3-2-6-3-15-4-4-11 1h-12l-8-3-7-7-10-18-4-4-10-4-4-6 1-5 6-10 1-3v-21l-1-8v-10l2-6v-16l4-8 8-9 10-7 14-7 13-4z" fill="#8C8D8F"/>
<path transform="translate(1158,86)" d="m0 0 7 2 7 6 4 1 10-4h9l6 4 8 9 6 2 12 2 2 3 1 16 9 6 4 3v6l-3 5v9l5 10-1 5-6 6-1 6 4 8v8l-5 8-8 3-8 1 6 34 1 5h-4v2l-16 1h-31l-18-2 3-1-3-11-25-1-6-3-7-8-10-19-4-3-6-3-4-5 1-6 6-9 2-6 1-36 2-3-1-4-3-6-1-4v-9l2-9 4-6 5-4 4-1h8l10 2h6l13-9z" fill="#CFD3D4"/>
<path transform="translate(625,289)" d="m0 0 7 2 7 3 17 6 9 4 17 6 12 5 12 4 9 4-1 9h-2l-1 5-4 12v2l12 6 8 8 7 13-1 4-9 13h-2v3h-2l-2 6-4 7h-31l-4 11-4 9-4 12-2 3-12-3-5-2-1 5-6 10-8 7-12 6-8 2-10-14-9-9-14-9-2-2h2v-9l3-13-7-2-1-1 1-7 5-11 5-13 8-20 6-17 5-11 6-17 5-12 4-10z" fill="#F16452"/>
<path transform="translate(182,95)" d="m0 0h55l13 3 11 6 4 5 1 3v11l-5 9-10 9-12 9-9 9-9 14-6 13-5 15-7 28-4 8-8 7-15 7-16 2-8-2-7-9-8-16-8-21-6-22-4-19v-18l4-13 8-13 7-8 10-7 5-3 16-5z" fill="#C19A71"/>
<path transform="translate(1322,696)" d="m0 0h30l21 1 14 2 10 3 16 9 9 8 7 10 5 13 2 8v17l-6 26-9 27-5 12-8 15-7 7h-17l-15-5-11-8-6-9-5-23-8-24-8-16-10-13-9-8-15-11-5-6-4-8v-8l3-6 8-7 10-4z" fill="#111A21"/>
<path transform="translate(652,582)" d="m0 0 2 3-1 16-3 18v25l3 10v10l-7 6-8 2-5 7-10 23-6 8-5 4-5 2h-18l-7-2h-6l-5 9-2 5-5 1h-18l-20-3-15-4-12-5-8-4v-8l15-53 11 1h19l10-2 10-5 6-8 7-12 7-9 9-10 10-7 9-4 9-2 22-2 8-3z" fill="#74502E"/>
<path transform="translate(768,652)" d="m0 0h3l15 33 16 34 13 28 11 24v2l-6 2-1-1-2-9-1-1h-7l-4 4-2 15-18 8-16 8-16 7-14 7-3-1-10-21-9-20-17-37-16-36-2-5 15-8 24-11 41-19z" fill="#265C61"/>
<path transform="translate(1294,734)" d="m0 0 20 15 10 9 9 13 8 16 7 22 5 23 6 9 10 7 15 5 12 1-3 13-2 5-3 15-3 14 3 2-10 2-13 1h-24l-23-2-23-3 5-17 1-8-5-1-11-7-6-7-4-8-3-7-4-25-1-3h-2l-6-7v-7l4-6 10-11 8-16 11-34z" fill="#D9B08C"/>
<path transform="translate(260,132)" d="m0 0 2 3 13 38 6 11 12 14 2 4v8l-7 8-3 12-3 16-7 14-9 9-11 6v7l4 17-1 1-25 3-9 1h-41l-12-2-11-46v-3l19-4 13-7 6-5 4-8 7-28 6-18 9-17 8-10 9-9 12-9z" fill="#F4D0A1"/>
<path transform="translate(490,604)" d="m0 0h1l1 20 2 11 4 10 8 7-2 10-13 47-2 2-17 3-10 3-7 2-7 3h-6v2l-11 3-11 5-7 3-8 2-1-8-3-77v-22l34-7 24-7 15-5 13-5z" fill="#FCFCFC"/>
<path transform="translate(912,218)" d="m0 0 5 2 24 5 19 4 6 3 7 8 6 16 8 32 5 10 3 3 3 1h24l15-3h5l6 22 7 24-2 2-15 3h-42l-18-3-2-6-3-15-4-4-11 1h-12l-8-3-7-7-10-18-4-4-10-4-4-6 1-5 6-10 1-3v-21l-1-8v-10z" fill="#90725F"/>
<path transform="translate(1109,135)" d="m0 0 9 2 14 9 8 5 5 1 5-2h10l2 2 1 11 3 5 9 7 5 5 1 4 1 14 18 4 18 8 2 1 6 34 1 5h-4v2l-16 1h-31l-18-2 3-1-3-11-25-1-6-3-7-8-10-19-4-3-6-3-4-5 1-6 6-9 2-6 1-36z" fill="#F0D0B6"/>
<path transform="translate(1058,685)" d="m0 0h1l1 11 7 13 10 13 12 16 6 12v7l-4 14-5 15v9l5 23 1 3v11l-5 13-8 11-1-2h-9l-22-2v-1l7-1 5-18 1-8-11-3-10-4-8-7-3-5v-22l1-15-8-10-1-8 7-7 10-15 8-20 7-17 5-4z" fill="#F0D0B6"/>
<path transform="translate(376,366)" d="m0 0 5 5 4 8 8 28 7 14 9 11v7l-4 5-5 5-1 34-4 8-8 6-11 4-10 2-1 1 1 14 2 9-18 4h-5l-2-9-5-12-12-21-4-10-1-11 2-8 5-9 13-15 17-17 10-14 5-11 3-12z" fill="#C09A71"/>
<path transform="translate(1358,717)" d="m0 0h4l2 4 8-1 11 3 5 4 4 4 9 3 2 5-2 5 1 3v7l-2 8 3 3v2h-2l-1 5-4 10-2 7-4 5-1 4 2 3-5 5-2 1-2-2 3-1-1-4-7 3-3 1-2-4v-7l-2-1-2-4 1-5h-2l-2-2h-5l-2-4 3-3-4-6-2-4h-2l-4-5-3-1-3-5v-2h2v-2l-3 1-4-7-3-2h2l-2-6-3-3 2-4-4-3 1-5 3-1 3 1v3l5 1v2l-4 2-1 3 1 1h7l5-1-1-4h-2l-1-5-3-1 4-3 1 1 8-1z" fill="#102025"/>
<path transform="translate(601,388)" d="m0 0h10l2 1 1 3 2 28 5 6 29 13 4 2h-2l-1 5-6 10-8 7-12 6-8 2-10-14-9-9-14-9-2-2h2v-9l3-13-2-1h3l2-9 6-12z" fill="#C09A71"/>
<path transform="translate(809,763)" d="m0 0h7l3 4 5 37v6l2 1-9 5-10 9-6 7-3 4v-2l-6-2-16-10-16-11-7-5 3-2 23-11 9-5 8-3 6-2 2-15z" fill="#EFD0B5"/>
<path transform="translate(704,352)" d="m0 0 8 1 8 5 7 7 7 13-1 4-9 13h-2v3h-2l-2 6-4 7h-32l-17-5-6-4-1-7 3-4 13-2 16-3 6-12 7-20z" fill="#90725F"/>
<path transform="translate(1297,712)" d="m0 0 4 1 1 2-2 5h-2l-1 7-6 2-2-6 4-10z" fill="#112025"/>
<path transform="translate(1399,843)" d="m0 0v3l-1 6 3 2h-17v-1h5v-3l-2-2 2-1v-2z" fill="#152428"/>
<path transform="translate(1318,737)" d="m0 0 7 1h4l4 2-2 3v2h-2v3l-6-2-3-2v-2h-2v-2h-2v-2z" fill="#102025"/>
<path transform="translate(1425,760)" d="m0 0h3v6l-4 8-2-1 1-10z" fill="#102126"/>
<path transform="translate(1301,731)" d="m0 0 5 1 8 7-3 1v-2l-7-2-4-4z" fill="#102126"/>
<path transform="translate(1421,786)" d="m0 0 2 2-2 8-3 4 1-9z" fill="#102126"/>
<path transform="translate(1058,685)" d="m0 0h1v12l-3-3v-3h-2l1-3z" fill="#D2C8A0"/>
</svg>
